<svg width="16" height="16" viewBox="0 0 16 16" fill="none" xmlns="http://www.w3.org/2000/svg">
<g clip-path="url(#clip0_0_64)">
<path d="M1.3335 11.9997C1.3335 10.9727 1.3335 10.4592 1.56465 10.082C1.69399 9.87096 1.87145 9.6935 2.08252 9.56416C2.45972 9.33301 2.9732 9.33301 4.00016 9.33301C5.02712 9.33301 5.5406 9.33301 5.91781 9.56416C6.12887 9.6935 6.30633 9.87096 6.43568 10.082C6.66683 10.4592 6.66683 10.9727 6.66683 11.9997C6.66683 13.0266 6.66683 13.5401 6.43568 13.9173C6.30633 14.1284 6.12887 14.3058 5.91781 14.4352C5.5406 14.6663 5.02712 14.6663 4.00016 14.6663C2.9732 14.6663 2.45972 14.6663 2.08252 14.4352C1.87145 14.3058 1.69399 14.1284 1.56465 13.9173C1.3335 13.5401 1.3335 13.0266 1.3335 11.9997Z" stroke="#A0A0A0"/>
<path d="M9.3335 11.9997C9.3335 10.9727 9.3335 10.4592 9.56465 10.082C9.69399 9.87096 9.87145 9.6935 10.0825 9.56416C10.4597 9.33301 10.9732 9.33301 12.0002 9.33301C13.0271 9.33301 13.5406 9.33301 13.9178 9.56416C14.1289 9.6935 14.3063 9.87096 14.4357 10.082C14.6668 10.4592 14.6668 10.9727 14.6668 11.9997C14.6668 13.0266 14.6668 13.5401 14.4357 13.9173C14.3063 14.1284 14.1289 14.3058 13.9178 14.4352C13.5406 14.6663 13.0271 14.6663 12.0002 14.6663C10.9732 14.6663 10.4597 14.6663 10.0825 14.4352C9.87145 14.3058 9.69399 14.1284 9.56465 13.9173C9.3335 13.5401 9.3335 13.0266 9.3335 11.9997Z" stroke="#A0A0A0"/>
<path d="M1.3335 3.99967C1.3335 2.97272 1.3335 2.45924 1.56465 2.08203C1.69399 1.87096 1.87145 1.6935 2.08252 1.56416C2.45972 1.33301 2.9732 1.33301 4.00016 1.33301C5.02712 1.33301 5.5406 1.33301 5.91781 1.56416C6.12887 1.6935 6.30633 1.87096 6.43568 2.08203C6.66683 2.45924 6.66683 2.97272 6.66683 3.99967C6.66683 5.02663 6.66683 5.54011 6.43568 5.91732C6.30633 6.12839 6.12887 6.30585 5.91781 6.43519C5.5406 6.66634 5.02712 6.66634 4.00016 6.66634C2.9732 6.66634 2.45972 6.66634 2.08252 6.43519C1.87145 6.30585 1.69399 6.12839 1.56465 5.91732C1.3335 5.54011 1.3335 5.02663 1.3335 3.99967Z" stroke="#A0A0A0"/>
<path d="M9.3335 3.99967C9.3335 2.97272 9.3335 2.45924 9.56465 2.08203C9.69399 1.87096 9.87145 1.6935 10.0825 1.56416C10.4597 1.33301 10.9732 1.33301 12.0002 1.33301C13.0271 1.33301 13.5406 1.33301 13.9178 1.56416C14.1289 1.6935 14.3063 1.87096 14.4357 2.08203C14.6668 2.45924 14.6668 2.97272 14.6668 3.99967C14.6668 5.02663 14.6668 5.54011 14.4357 5.91732C14.3063 6.12839 14.1289 6.30585 13.9178 6.43519C13.5406 6.66634 13.0271 6.66634 12.0002 6.66634C10.9732 6.66634 10.4597 6.66634 10.0825 6.43519C9.87145 6.30585 9.69399 6.12839 9.56465 5.91732C9.3335 5.54011 9.3335 5.02663 9.3335 3.99967Z" stroke="#A0A0A0"/>
</g>
<defs>
<clipPath id="clip0_0_64">
<rect width="16" height="16" fill="white"/>
</clipPath>
</defs>
</svg>
