<svg width="20" height="16" viewBox="0 0 20 16" fill="none" xmlns="http://www.w3.org/2000/svg">
<path d="M19.8008 3.45237C19.8008 3.45237 19.6055 1.88392 19.0039 1.19522C18.2422 0.288809 17.3906 0.284365 17 0.231047C14.2031 -1.27121e-07 10.0039 0 10.0039 0H9.99609C9.99609 0 5.79688 -1.27121e-07 3 0.231047C2.60938 0.284365 1.75781 0.288809 0.996094 1.19522C0.394531 1.88392 0.203125 3.45237 0.203125 3.45237C0.203125 3.45237 0 5.29631 0 7.1358V8.85976C0 10.6992 0.199219 12.5432 0.199219 12.5432C0.199219 12.5432 0.394531 14.1116 0.992187 14.8003C1.75391 15.7067 2.75391 15.6756 3.19922 15.7734C4.80078 15.9467 10 16 10 16C10 16 14.2031 15.9911 17 15.7645C17.3906 15.7112 18.2422 15.7067 19.0039 14.8003C19.6055 14.1116 19.8008 12.5432 19.8008 12.5432C19.8008 12.5432 20 10.7037 20 8.85976V7.1358C20 5.29631 19.8008 3.45237 19.8008 3.45237ZM7.93359 10.9525V4.55873L13.3359 7.76673L7.93359 10.9525Z" fill="#5A5A5A"/>
</svg>
