<svg width="16" height="16" viewBox="0 0 16 16" fill="none" xmlns="http://www.w3.org/2000/svg">
<g clip-path="url(#clip0_2001_17159)">
<path d="M2.52602 6.0244C2.05443 6.27967 0.817951 6.80092 1.57105 7.45318C1.93893 7.7718 2.34866 7.99967 2.86379 7.99967H5.80321C6.31833 7.99967 6.72806 7.7718 7.09594 7.45318C7.84904 6.80092 6.61256 6.27967 6.14097 6.0244C5.0351 5.42578 3.63189 5.42578 2.52602 6.0244Z" stroke="#F5F5F4"/>
<path d="M5.8335 2.84816C5.8335 3.68495 5.16192 4.36331 4.3335 4.36331C3.50507 4.36331 2.8335 3.68495 2.8335 2.84816C2.8335 2.01136 3.50507 1.33301 4.3335 1.33301C5.16192 1.33301 5.8335 2.01136 5.8335 2.84816Z" stroke="#F5F5F4"/>
<path d="M2.6665 10C2.6665 12.2114 4.45508 14 6.6665 14L6.09508 12.8571" stroke="#F5F5F4" stroke-linecap="round" stroke-linejoin="round"/>
<path d="M13.3335 6C13.3335 3.78857 11.5449 2 9.3335 2L9.90492 3.14286" stroke="#F5F5F4" stroke-linecap="round" stroke-linejoin="round"/>
<path d="M9.85903 12.6914C9.38744 12.9467 8.15096 13.4679 8.90406 14.1202C9.27194 14.4388 9.68167 14.6667 10.1968 14.6667H13.1362C13.6513 14.6667 14.0611 14.4388 14.429 14.1202C15.182 13.4679 13.9456 12.9467 13.474 12.6914C12.3681 12.0928 10.9649 12.0928 9.85903 12.6914Z" stroke="#F5F5F4"/>
<path d="M13.1665 9.51515C13.1665 10.3519 12.4949 11.0303 11.6665 11.0303C10.8381 11.0303 10.1665 10.3519 10.1665 9.51515C10.1665 8.67836 10.8381 8 11.6665 8C12.4949 8 13.1665 8.67836 13.1665 9.51515Z" stroke="#F5F5F4"/>
</g>
<defs>
<clipPath id="clip0_2001_17159">
<rect width="16" height="16" fill="white"/>
</clipPath>
</defs>
</svg>
