<svg width="16" height="16" viewBox="0 0 16 16" fill="none" xmlns="http://www.w3.org/2000/svg">
<path d="M7.3335 4.33301L7.3335 12.9997" stroke="#F5F5F4" stroke-linecap="round"/>
<path d="M7.3335 12.9997C7.1853 12.9997 6.88252 12.8383 6.277 12.5156C5.66156 12.1875 4.81129 11.8611 3.72183 11.6562C2.49969 11.4264 1.88861 11.3115 1.61105 10.9722C1.3335 10.6329 1.3335 10.0895 1.3335 9.00262V4.73071C1.3335 3.54203 1.3335 2.94769 1.76597 2.58169C2.19844 2.21568 2.70623 2.31117 3.72183 2.50215C5.72655 2.87914 6.92136 3.66771 7.3335 4.12043C7.74563 3.66771 8.94044 2.87914 10.9452 2.50215C11.9608 2.31117 12.4686 2.21568 12.901 2.58169C13.3335 2.94769 13.3335 3.54203 13.3335 4.73071V6.66634" stroke="#F5F5F4" stroke-linecap="round" stroke-linejoin="round"/>
<path d="M10.232 13.5702L10.1274 13.0812L10.1274 13.0812L10.232 13.5702ZM9.42968 12.7679L9.91863 12.8724L9.42968 12.7679ZM10.0139 11.0742L9.66039 10.7206H9.66039L10.0139 11.0742ZM14.531 9.31787L14.964 9.06787L14.531 9.31787ZM14.531 10.3317L14.964 10.5817L14.531 10.3317ZM13.682 8.46884L13.932 8.03583V8.03583L13.682 8.46884ZM12.2192 8.86893L12.5727 9.22248L12.2192 8.86893ZM12.6681 8.46884L12.4181 8.03583V8.03583L12.6681 8.46884ZM14.1309 10.7807L13.7774 10.4271L11.5721 12.6323L11.9257 12.9859L12.2792 13.3394L14.4845 11.1342L14.1309 10.7807ZM10.0139 11.0742L10.3675 11.4277L12.5727 9.22248L12.2192 8.86893L11.8656 8.51537L9.66039 10.7206L10.0139 11.0742ZM10.232 13.5702L10.1274 13.0812C10.0105 13.1062 9.91701 13.1262 9.8367 13.1411C9.75567 13.1562 9.70255 13.1633 9.66654 13.1656C9.62956 13.1679 9.63212 13.1635 9.65519 13.1695C9.68657 13.1776 9.72925 13.1978 9.76564 13.2342L9.41209 13.5877L9.05854 13.9413C9.27439 14.1572 9.54404 14.1754 9.73001 14.1635C9.90701 14.1523 10.1228 14.1048 10.3365 14.0591L10.232 13.5702ZM9.42968 12.7679L8.94074 12.6633C8.89503 12.8771 8.84754 13.0928 8.83629 13.2698C8.82446 13.4558 8.84268 13.7254 9.05854 13.9413L9.41209 13.5877L9.76564 13.2342C9.80204 13.2706 9.82226 13.3133 9.83035 13.3447C9.8363 13.3677 9.83192 13.3703 9.83427 13.3333C9.83656 13.2973 9.84368 13.2442 9.85875 13.1631C9.87368 13.0828 9.89362 12.9894 9.91863 12.8724L9.42968 12.7679ZM14.1309 8.86893L13.7774 9.22248C14.0224 9.46747 14.0725 9.52365 14.098 9.56787L14.531 9.31787L14.964 9.06787C14.8561 8.8809 14.6839 8.71484 14.4845 8.51537L14.1309 8.86893ZM14.1309 10.7807L14.4845 11.1342C14.6839 10.9348 14.8561 10.7687 14.964 10.5817L14.531 10.3317L14.098 10.0817C14.0725 10.1259 14.0224 10.1821 13.7774 10.4271L14.1309 10.7807ZM14.531 9.31787L14.098 9.56787C14.1898 9.72686 14.1898 9.92274 14.098 10.0817L14.531 10.3317L14.964 10.5817C15.2344 10.1133 15.2344 9.53626 14.964 9.06787L14.531 9.31787ZM14.1309 8.86893L14.4845 8.51537C14.285 8.3159 14.1189 8.14377 13.932 8.03583L13.682 8.46884L13.432 8.90185C13.4762 8.92738 13.5324 8.97748 13.7774 9.22248L14.1309 8.86893ZM12.2192 8.86893L12.5727 9.22248C12.8177 8.97748 12.8739 8.92738 12.9181 8.90185L12.6681 8.46884L12.4181 8.03583C12.2311 8.14377 12.0651 8.3159 11.8656 8.51537L12.2192 8.86893ZM13.682 8.46884L13.932 8.03583C13.4636 7.7654 12.8865 7.7654 12.4181 8.03583L12.6681 8.46884L12.9181 8.90185C13.0771 8.81006 13.273 8.81006 13.432 8.90185L13.682 8.46884ZM11.9257 12.9859L11.5721 12.6323C11.4418 12.7627 11.2637 12.847 11.0105 12.9116C10.8837 12.944 10.7484 12.969 10.5977 12.9951C10.4528 13.0201 10.287 13.0471 10.1274 13.0812L10.232 13.5702L10.3365 14.0591C10.4711 14.0303 10.6089 14.0079 10.7679 13.9805C10.9211 13.954 11.0899 13.9234 11.2579 13.8805C11.5944 13.7946 11.969 13.6497 12.2792 13.3394L11.9257 12.9859ZM9.42968 12.7679L9.91863 12.8724C9.95275 12.7128 9.97976 12.547 10.0048 12.4021C10.0308 12.2514 10.0559 12.1161 10.0882 11.9893C10.1529 11.7362 10.2371 11.5581 10.3675 11.4277L10.0139 11.0742L9.66039 10.7206C9.35018 11.0308 9.20523 11.4054 9.11931 11.7419C9.07641 11.91 9.04584 12.0788 9.01938 12.2319C8.99191 12.3909 8.9695 12.5288 8.94074 12.6633L9.42968 12.7679Z" fill="#F5F5F4"/>
</svg>
