<svg width="16" height="16" viewBox="0 0 16 16" fill="none" xmlns="http://www.w3.org/2000/svg">
<path d="M9.66683 5.99967C9.66683 6.92015 8.92064 7.66634 8.00016 7.66634C7.07969 7.66634 6.3335 6.92015 6.3335 5.99967C6.3335 5.0792 7.07969 4.33301 8.00016 4.33301C8.92064 4.33301 9.66683 5.0792 9.66683 5.99967Z" stroke="#A0A0A0"/>
<path d="M8.83843 11.6621C8.61358 11.8786 8.31304 11.9997 8.00026 11.9997C7.68749 11.9997 7.38695 11.8786 7.1621 11.6621C5.10303 9.66686 2.34362 7.43803 3.6893 4.20216C4.4169 2.45256 6.16346 1.33301 8.00026 1.33301C9.83707 1.33301 11.5836 2.45256 12.3112 4.20216C13.6552 7.43395 10.9026 9.67374 8.83843 11.6621Z" stroke="#A0A0A0"/>
<path d="M12 13.333C12 14.0694 10.2091 14.6663 8 14.6663C5.79086 14.6663 4 14.0694 4 13.333" stroke="#A0A0A0" stroke-linecap="round"/>
</svg>
