<svg width="30" height="48" viewBox="0 0 30 48" fill="none" xmlns="http://www.w3.org/2000/svg">
<path d="M0 14.7012C0 13.4692 0 12.3333 0 11.1133C0.639961 11.1133 1.2745 11.0833 1.90361 11.1193C3.90485 11.2335 5.87896 11.534 7.7175 12.5076C10.9119 14.2024 12.6474 17.0992 13.2277 20.8915C13.3849 21.9011 13.4121 22.9468 13.4121 23.9745C13.4066 31.7334 13.3795 39.4922 13.3633 47.251C13.3633 47.4193 13.3524 47.5936 13.3361 47.9842C12.6419 47.4734 11.9911 47.1068 11.4596 46.5839C10.337 45.4781 9.71873 44.0117 9.69161 42.3769C9.60484 37.8455 9.61026 33.308 9.58315 28.7765C9.5723 26.4987 9.61568 24.221 9.54518 21.9432C9.44213 18.7399 7.70123 16.2157 4.94614 15.2962C3.93739 14.9597 2.85813 14.8635 1.80599 14.7193C1.22569 14.6411 0.639961 14.7012 0 14.7012Z" fill="#1E4D4D"/>
<path d="M29.7412 14.7012C29.7412 13.4692 29.7412 12.3333 29.7412 11.1133C29.1012 11.1133 28.4667 11.0833 27.8375 11.1193C25.8363 11.2335 23.8622 11.534 22.0237 12.5076C18.8293 14.2024 17.0938 17.0992 16.5135 20.8915C16.3562 21.9011 16.3291 22.9468 16.3291 23.9745C16.3345 31.7334 16.3616 39.4922 16.3779 47.251C16.3779 47.4193 16.3888 47.5936 16.405 47.9842C17.0992 47.4734 17.75 47.1068 18.2815 46.5839C19.4042 45.4781 20.0224 44.0117 20.0496 42.3769C20.1363 37.8455 20.1309 33.308 20.158 28.7765C20.1689 26.4987 20.1255 24.221 20.196 21.9432C20.299 18.7399 22.0399 16.2157 24.795 15.2962C25.8038 14.9597 26.883 14.8635 27.9352 14.7193C28.5155 14.6411 29.1012 14.7012 29.7412 14.7012Z" fill="#1E4D4D"/>
<path d="M29.9878 4.81395C29.9878 5.84766 30.0258 6.83329 29.9661 7.81291C29.939 8.20956 29.9878 8.11941 29.4401 8.17951C28.1872 8.31173 26.929 8.40188 25.6762 8.51005C24.521 8.60621 23.3604 8.69035 22.2052 8.79853C21.8419 8.83459 21.6521 8.66631 21.4839 8.32375C20.7952 6.90541 20.0738 5.5111 19.3905 4.08675C19.2115 3.70812 19.0054 3.57591 18.6204 3.58192C16.348 3.60596 14.081 3.61197 11.8086 3.60596C11.4778 3.60596 11.2879 3.70812 11.1307 4.04468C10.4419 5.48706 9.70973 6.8994 9.02096 8.34178C8.84198 8.7144 8.64132 8.88868 8.25626 8.85262C6.86787 8.72041 5.47948 8.60021 4.09109 8.49804C2.85455 8.40188 1.6126 8.32976 0.376062 8.25163C0.262171 8.24562 0.153704 8.23961 0.0126953 8.22759C0.0126953 7.07969 0.0126953 5.97387 0.0126953 4.7839C0.235055 4.7839 0.441143 4.7839 0.647232 4.7839C2.52915 4.7839 4.41107 4.77789 6.29299 4.79592C6.64551 4.80193 6.84617 4.69976 7.01972 4.33917C7.65426 3.03501 8.33218 1.76091 8.97215 0.456753C9.14569 0.108178 9.34636 0 9.70431 0C13.3922 0.0240397 17.0801 0.024039 20.7626 0.018029C21.0934 0.018029 21.2887 0.126207 21.446 0.456753C22.0588 1.72485 22.7096 2.9689 23.3116 4.24301C23.5014 4.63966 23.7292 4.78991 24.1305 4.7839C25.8552 4.76587 27.5852 4.77789 29.3099 4.77789C29.5214 4.7839 29.7275 4.80193 29.9878 4.81395Z" fill="#1E4D4D"/>
<path d="M15.1803 12.7714C13.5261 12.7714 12.2354 11.335 12.2354 9.50199C12.2354 7.693 13.5641 6.22057 15.1965 6.22658C16.8507 6.23259 18.1414 7.67497 18.1306 9.508C18.1252 11.3591 16.8452 12.7714 15.1803 12.7714Z" fill="#F26457"/>
<path d="M3.44917 3.73173C2.94479 3.73173 2.44042 3.77981 1.94689 3.70769C1.74622 3.67764 1.45336 3.42522 1.40997 3.21487C1.3232 2.83024 1.61606 2.64393 1.94147 2.63792C2.96649 2.6259 3.99151 2.6259 5.01111 2.63792C5.33109 2.64393 5.64565 2.8062 5.5426 3.20285C5.48294 3.42522 5.17923 3.67163 4.95687 3.70769C4.46334 3.78582 3.95355 3.73173 3.44917 3.73173Z" fill="#F26457"/>
</svg>
